<svg width="20" height="20" viewBox="0 0 20 20" version="1.1" xmlns="http://www.w3.org/2000/svg" xmlns:xlink="http://www.w3.org/1999/xlink">
<g id="Canvas" fill="none">
<g id="Shape">
<path fill-rule="evenodd" clip-rule="evenodd" d="M 18.501 18.023L 1.477 18.023C 0.661 18.023 0 17.444 0 16.73L 0 1.292C 0 0.579 0.661 0 1.477 0L 18.501 0C 19.316 0 19.977 0.579 19.977 1.292L 19.977 16.73C 19.977 17.444 19.316 18.023 18.501 18.023ZM 3.46191 15.054L 6.40391 15.054L 6.40391 6.91699L 3.46191 6.91699L 3.46191 15.054ZM 4.95306 2.99512C 3.94606 2.99512 3.28906 3.60212 3.28906 4.40112C 3.28906 5.18112 3.92706 5.80712 4.91406 5.80712L 4.93306 5.80712C 5.95906 5.80712 6.59706 5.18112 6.59706 4.40112C 6.57906 3.60212 5.95906 2.99512 4.95306 2.99512ZM 17.0122 10.3891C 17.0122 7.88907 15.5602 6.72607 13.6252 6.72607C 12.0632 6.72607 11.3652 7.51507 10.9742 8.07007L 10.9742 6.91707L 8.03223 6.91707C 8.07123 7.68107 8.03223 15.0541 8.03223 15.0541L 10.9742 15.0541L 10.9742 10.5101C 10.9742 10.2681 10.9932 10.0241 11.0712 9.85107C 11.2832 9.36507 11.7682 8.86207 12.5802 8.86207C 13.6452 8.86207 14.0702 9.60807 14.0702 10.7021L 14.0702 15.0541L 17.0122 15.0541L 17.0122 10.3891ZM 10.9541 8.09682C 10.9601 8.08782 10.9681 8.07882 10.9741 8.06982L 10.9741 8.09682L 10.9541 8.09682Z" transform="translate(0.0112305 0.990234)" fill="#B5211C"/>
</g>
</g>
</svg>

